name ./resultDataOpenSim/trcMotMarkerGrf/sub06/grf-02-07.mot
datacolumns 19
datarows 12
range 0.49200000 0.53600000
endheader

                time	     ground_force_vx	     ground_force_vy	     ground_force_vz	     ground_force_px	     ground_force_py	     ground_force_pz	   l_ground_force_vx	   l_ground_force_vy	   l_ground_force_vz	   l_ground_force_px	   l_ground_force_py	   l_ground_force_pz	     ground_torque_x	     ground_torque_y	     ground_torque_z	   l_ground_torque_x	   l_ground_torque_y	   l_ground_torque_z	
          0.49200000	        122.67590931	        698.74148309	        -33.04316206	         -0.78923821	          0.00000000	          0.12287080	          0.00000000	          0.00000000	          0.00000000	          0.00000000	          0.00000000	          0.00000000	          0.00000000	          1.47389084	          0.00000000	          0.00000000	          0.00000000	          0.00000000	
          0.49600000	        128.91027207	        711.50290700	        -33.06858705	         -0.78885549	          0.00000000	          0.12257776	          0.00000000	          0.00000000	          0.00000000	          0.00000000	          0.00000000	          0.00000000	          0.00000000	          1.56591512	          0.00000000	          0.00000000	          0.00000000	          0.00000000	
          0.50000000	        135.42025324	        722.78654913	        -33.46952499	         -0.78851399	          0.00000000	          0.12233425	          0.00000000	          0.00000000	          0.00000000	          0.00000000	          0.00000000	          0.00000000	          0.00000000	          1.61762568	          0.00000000	          0.00000000	          0.00000000	          0.00000000	
          0.50400000	        142.15884083	        732.51300446	        -34.10775351	         -0.78820597	          0.00000000	          0.12214618	          0.00000000	          0.00000000	          0.00000000	          0.00000000	          0.00000000	          0.00000000	          0.00000000	          1.63493836	          0.00000000	          0.00000000	          0.00000000	          0.00000000	
          0.50800000	        149.03071723	        740.62418749	        -34.81178066	         -0.78790838	          0.00000000	          0.12200999	          0.00000000	          0.00000000	          0.00000000	          0.00000000	          0.00000000	          0.00000000	          0.00000000	          1.62972225	          0.00000000	          0.00000000	          0.00000000	          0.00000000	
          0.51200000	        155.91755447	        747.10138565	        -35.41817384	         -0.78760105	          0.00000000	          0.12191692	          0.00000000	          0.00000000	          0.00000000	          0.00000000	          0.00000000	          0.00000000	          0.00000000	          1.61587251	          0.00000000	          0.00000000	          0.00000000	          0.00000000	
          0.51600000	        162.70526504	        751.97317786	        -35.80523836	         -0.78727320	          0.00000000	          0.12185324	          0.00000000	          0.00000000	          0.00000000	          0.00000000	          0.00000000	          0.00000000	          0.00000000	          1.60519916	          0.00000000	          0.00000000	          0.00000000	          0.00000000	
          0.52000000	        169.30257806	        755.29784141	        -35.91489199	         -0.78691981	          0.00000000	          0.12180604	          0.00000000	          0.00000000	          0.00000000	          0.00000000	          0.00000000	          0.00000000	          0.00000000	          1.60425353	          0.00000000	          0.00000000	          0.00000000	          0.00000000	
          0.52400000	        175.64977994	        757.13424945	        -35.75931375	         -0.78653793	          0.00000000	          0.12176796	          0.00000000	          0.00000000	          0.00000000	          0.00000000	          0.00000000	          0.00000000	          0.00000000	          1.61278113	          0.00000000	          0.00000000	          0.00000000	          0.00000000	
          0.52800000	        181.72259875	        757.52462400	        -35.41142554	         -0.78612453	          0.00000000	          0.12173598	          0.00000000	          0.00000000	          0.00000000	          0.00000000	          0.00000000	          0.00000000	          0.00000000	          1.62392548	          0.00000000	          0.00000000	          0.00000000	          0.00000000	
          0.53200000	        187.53168051	        756.48226210	        -34.98512629	         -0.78567306	          0.00000000	          0.12171004	          0.00000000	          0.00000000	          0.00000000	          0.00000000	          0.00000000	          0.00000000	          0.00000000	          1.62589712	          0.00000000	          0.00000000	          0.00000000	          0.00000000	
          0.53600000	        193.11262604	        753.97739411	        -34.60793184	         -0.78518114	          0.00000000	          0.12168992	          0.00000000	          0.00000000	          0.00000000	          0.00000000	          0.00000000	          0.00000000	          0.00000000	          1.60463548	          0.00000000	          0.00000000	          0.00000000	          0.00000000	
